<?xml version="1.0" encoding="UTF-8"?>
<svg id="Layer_1" data-name="Layer 1" xmlns="http://www.w3.org/2000/svg" viewBox="0 0 20 20">
  <path d="M13.23,1.53l-.82,5.35,4.97-2.14c.2-.09.37.17.22.32l-3.81,3.84,5.28,1.19c.21.05.2.35-.01.39l-5.34.87,3.57,4.07c.14.16-.04.4-.24.31l-4.83-2.44.5,5.39c.02.22-.27.3-.37.11l-2.48-4.81-2.76,4.66c-.11.19-.4.08-.36-.13l.82-5.35-4.97,2.14c-.2.09-.37-.17-.22-.32l3.81-3.84-5.28-1.19c-.21-.05-.2-.35.01-.39l5.34-.87-3.57-4.07c-.14-.16.04-.4.24-.31l4.83,2.44-.5-5.39c-.02-.22.27-.3.37-.11l2.48,4.81,2.76-4.66c.11-.19.4-.08.36.13Z"/>
</svg>